HIERARCHY
ROOT Hips
{
	OFFSET 0.000000 0.000000 0.000000
	CHANNELS 6 Xposition Yposition Zposition Zrotation Yrotation Xrotation 
	JOINT LHipJoint
	{
		OFFSET 0.000000 0.000000 0.000000
		CHANNELS 3 Zrotation Yrotation Xrotation
		JOINT LeftUpLeg
		{
			OFFSET 1.363060 -1.794630 0.839290
			CHANNELS 3 Zrotation Yrotation Xrotation
			JOINT LeftLeg
			{
				OFFSET 2.448110 -6.726130 0.000000
				CHANNELS 3 Zrotation Yrotation Xrotation
				JOINT LeftFoot
				{
					OFFSET 2.562200 -7.039590 0.000000
					CHANNELS 3 Zrotation Yrotation Xrotation
					JOINT LeftToeBase
					{
						OFFSET 0.157640 -0.433110 2.322550
						CHANNELS 3 Zrotation Yrotation Xrotation
						End Site
						{
							OFFSET 0.000000 0.000000 0.000000
						}
					}
				}
			}
		}
	}
	JOINT RHipJoint
	{
		OFFSET 0.000000 0.000000 0.000000
		CHANNELS 3 Zrotation Yrotation Xrotation
		JOINT RightUpLeg
		{
			OFFSET -1.305520 -1.794630 0.839290
			CHANNELS 3 Zrotation Yrotation Xrotation
			JOINT RightLeg
			{
				OFFSET -2.542530 -6.985550 0.000000
				CHANNELS 3 Zrotation Yrotation Xrotation
				JOINT RightFoot
				{
					OFFSET -2.568260 -7.056230 0.000000
					CHANNELS 3 Zrotation Yrotation Xrotation
					JOINT RightToeBase
					{
						OFFSET -0.164730 -0.452590 2.363150
						CHANNELS 3 Zrotation Yrotation Xrotation
						End Site
						{
							OFFSET 0.000000 0.000000 0.000000
						}
					}
				}
			}
		}
	}
	JOINT LowerBack
	{
		OFFSET 0.000000 0.000000 0.000000
		CHANNELS 3 Zrotation Yrotation Xrotation
		JOINT Spine
		{
			OFFSET 0.028270 2.035590 -0.193380
			CHANNELS 3 Zrotation Yrotation Xrotation
			JOINT Spine1
			{
				OFFSET 0.056720 2.048850 -0.042750
				CHANNELS 3 Zrotation Yrotation Xrotation
				JOINT Neck
				{
					OFFSET 0.000000 0.000000 0.000000
					CHANNELS 3 Zrotation Yrotation Xrotation
					JOINT Neck1
					{
						OFFSET -0.054170 1.746240 0.172020
						CHANNELS 3 Zrotation Yrotation Xrotation
						JOINT Head
						{
							OFFSET 0.104070 1.761360 -0.123970
							CHANNELS 3 Zrotation Yrotation Xrotation
							End Site
							{
								OFFSET 0.000000 0.000000 0.000000
							}
						}
					}
				}
				JOINT LeftShoulder
				{
					OFFSET 0.000000 0.000000 0.000000
					CHANNELS 3 Zrotation Yrotation Xrotation
					JOINT LeftArm
					{
						OFFSET 3.362410 1.200890 -0.311210
						CHANNELS 3 Zrotation Yrotation Xrotation
						JOINT LeftForeArm
						{
							OFFSET 4.983000 -0.000000 -0.000000
							CHANNELS 3 Zrotation Yrotation Xrotation
							JOINT LeftHand
							{
								OFFSET 3.483560 -0.000000 -0.000000
								CHANNELS 3 Zrotation Yrotation Xrotation
								JOINT LeftFingerBase
								{
									OFFSET 0.000000 0.000000 0.000000
									CHANNELS 3 Zrotation Yrotation Xrotation
									JOINT LeftHandIndex1
									{
										OFFSET 0.715260 -0.000000 -0.000000
										CHANNELS 3 Zrotation Yrotation Xrotation
										End Site
										{
											OFFSET 0.000000 0.000000 0.000000
										}
									}
								}
								JOINT LThumb
								{
									OFFSET 0.000000 0.000000 0.000000
									CHANNELS 3 Zrotation Yrotation Xrotation
									End Site
									{
										OFFSET 0.000000 0.000000 0.000000
									}
								}
							}
						}
					}
				}
				JOINT RightShoulder
				{
					OFFSET 0.000000 0.000000 0.000000
					CHANNELS 3 Zrotation Yrotation Xrotation
					JOINT RightArm
					{
						OFFSET -3.136600 1.374050 -0.404650
						CHANNELS 3 Zrotation Yrotation Xrotation
						JOINT RightForeArm
						{
							OFFSET -5.241900 -0.000000 -0.000000
							CHANNELS 3 Zrotation Yrotation Xrotation
							JOINT RightHand
							{
								OFFSET -3.444170 -0.000000 -0.000000
								CHANNELS 3 Zrotation Yrotation Xrotation
								JOINT RightFingerBase
								{
									OFFSET 0.000000 0.000000 0.000000
									CHANNELS 3 Zrotation Yrotation Xrotation
									JOINT RightHandIndex1
									{
										OFFSET -0.622530 -0.000000 -0.000000
										CHANNELS 3 Zrotation Yrotation Xrotation
										End Site
										{
											OFFSET 0.000000 0.000000 0.000000
										}
									}
								}
								JOINT RThumb
								{
									OFFSET 0.000000 0.000000 0.000000
									CHANNELS 3 Zrotation Yrotation Xrotation
									End Site
									{
										OFFSET 0.000000 0.000000 0.000000
									}
								}
							}
						}
					}
				}
			}
		}
	}
}
MOTION
Frames: 9
Frame Time: 0.033333
1.430627 17.358643 -19.939873 90.880713 -39.316288 -32.039892 -106.915591 -43.589161 63.170086 27.213824 23.666054 -41.471560 -42.884557 55.538797 -44.525450 -59.788108 16.295655 -43.192030 -3.908028 -1.307110 -69.836203 29.013064 -22.012685 -120.989912 -13.865327 -85.397389 -19.419859 108.813673 -49.593234 -124.044915 -33.475474 -8.681507 -1.904069 3.733202 -0.000301 -44.205397 -103.917700 85.054748 -18.882070 170.856952 84.288559 168.917877 -150.308059 67.881889 -164.343108 27.251754 1.753180 4.054396 -5.996522 12.540226 8.822357 -0.195344 0.024065 -0.060186 109.782231 45.313339 -2.753649 112.247277 13.097734 77.943333 -110.439904 25.217456 -137.224030 -22.825078 -1.088107 167.327861 11.204143 -9.816405 27.493844 0.180989 0.162524 -0.109881 -0.060600 -0.119656 0.185730 50.106365 67.308560 64.935249 60.525941 -26.968969 160.243022 -29.955423 -69.778198 73.731680 14.159259 -23.618815 31.797582 -100.090111 56.733204 103.213272 0.176387 -0.053100 0.137509 0.101925 0.226899 -0.034086 
1.428111 17.085632 -19.854872 92.774566 -39.377677 -32.779710 -110.524502 -43.087005 66.469935 34.798844 24.652835 -36.130012 -57.026766 52.155197 -54.011251 -59.436304 10.761325 -47.420416 -3.887654 -1.312672 -66.700377 29.753890 -21.950295 -122.707343 14.295522 -89.332454 -47.258467 116.616758 -47.258501 -128.151894 -43.900575 -1.942068 -10.086395 3.488835 0.061743 -44.703256 -104.629048 84.106811 -14.785939 172.639946 84.623123 172.596957 -148.813533 65.382695 -159.945351 27.094968 3.326371 6.022904 0.886423 13.346559 11.116688 -0.042629 0.234945 -0.115512 111.898510 44.944426 -2.562469 112.782333 12.631366 77.729992 -107.213741 24.796972 -133.824464 -0.372128 -0.971314 166.903712 9.565224 -11.479993 20.655879 0.070775 0.090531 -0.088465 -0.220787 -0.082469 0.089308 57.686226 66.435916 70.491430 59.912897 -24.898889 161.177363 -26.435716 -76.107251 72.495305 20.143961 -23.567034 16.860080 -8.198709 75.226866 -139.413480 0.083404 -0.205540 0.155090 0.248899 0.024944 0.177733 
1.426395 16.723339 -19.753742 92.335491 -39.677047 -30.920954 -114.262933 -41.197708 69.715544 43.758376 29.501270 -31.416328 -75.552074 51.915270 -63.222033 -52.720927 9.836331 -39.800071 -4.174743 -1.141206 -60.053128 28.445519 -23.616515 -124.828225 -160.234402 -81.394521 127.574914 122.910863 -47.811965 -124.383423 -45.920332 -2.385527 -16.417764 3.092751 0.206666 -44.801122 -87.740751 80.572083 2.160448 160.653908 82.478620 161.479690 -144.125303 64.305985 -155.853316 29.307894 1.434049 3.691619 4.830575 7.482700 10.704757 -0.028829 0.127421 0.014180 114.547750 44.394766 -2.849599 113.089574 13.846612 77.255331 -99.219966 26.114043 -130.862084 -0.048529 -20.635034 167.788892 6.154531 -14.706747 12.839030 0.167507 0.128666 -0.164587 -0.073409 0.000440 0.068267 64.773782 64.256997 75.395057 57.415623 -17.378746 164.021046 -44.213434 -71.971960 89.585320 24.802264 -15.866355 3.676298 -6.957337 70.800787 -125.653184 0.062582 -0.145688 0.093371 0.070096 0.311378 0.108334 
1.425723 16.287497 -19.630527 90.222844 -40.335875 -29.524823 -119.242046 -37.070565 74.064408 52.721793 38.186918 -27.939287 -93.681497 56.450062 -72.822952 -31.846029 8.618849 -23.739534 -4.457910 -1.142519 -57.717156 29.787832 -24.984407 -125.800119 -157.353142 -73.240494 124.457015 130.909389 -50.565883 -119.384050 -41.209254 -2.703844 -22.662033 3.998782 0.093819 -44.239898 -73.665604 78.403598 16.755155 176.766214 79.137925 179.713501 -137.999296 66.506555 -151.763034 26.182397 3.257917 4.109634 9.385554 2.568990 14.526036 -0.069364 0.196620 -0.156592 115.525344 44.318181 -4.638561 112.504592 15.301561 82.349703 -90.421694 23.042482 -122.038216 -5.138328 -51.646971 154.692920 6.333223 -17.294556 11.201044 0.043127 -0.005169 -0.079958 -0.159089 0.032041 0.006815 68.166254 63.018119 77.327982 57.364960 -10.287153 163.295745 -50.846327 -60.538736 88.336541 15.302937 -16.122101 3.714034 -1.092981 55.154182 -130.509183 0.036487 -0.130405 -0.038580 0.050087 0.043030 0.068648 
1.447557 15.800868 -19.461002 89.218487 -41.489643 -30.694051 -119.978909 -33.361215 75.523973 61.258298 42.829087 -25.902741 -111.667292 61.570254 -82.192203 -19.014149 4.534242 -19.259175 -5.525841 -1.095605 -55.911106 31.837668 -25.375938 -124.201132 -158.010761 -68.094768 125.160313 136.670797 -54.399847 -112.517395 -36.743286 -2.631805 -28.182073 5.647293 0.038524 -45.761463 -68.659417 78.193951 21.735564 170.880152 75.781876 174.290868 -139.620961 68.309335 -153.114829 24.234379 2.596556 5.844359 10.926599 2.880430 15.630351 -0.120870 -0.003200 -0.012444 117.192712 44.372975 -6.670838 113.159731 17.661382 89.223218 -83.463387 13.864152 -112.253313 24.901769 -54.231216 96.043443 1.470369 -21.981820 17.401580 0.147217 0.001158 -0.070189 0.081660 -0.088711 0.072718 72.858909 62.153035 81.066349 56.131306 -5.700922 164.020130 -54.951193 -53.065178 83.642857 7.482203 -4.875969 -1.056014 -57.402641 34.330649 -169.409967 0.065865 0.022965 0.057024 0.049316 0.045117 -0.094043 
1.450018 15.336011 -19.265074 87.917107 -43.852532 -31.745307 -122.274036 -30.264388 76.753994 72.762688 47.310882 -19.487128 -130.305822 65.858319 -94.412705 -8.944638 0.517936 -15.879687 -6.528737 -1.273638 -57.950310 35.147192 -27.016798 -123.644294 -150.936648 -65.150673 121.536211 142.496689 -54.435994 -110.171326 -33.090546 -0.244403 -32.773623 6.920617 -0.112843 -45.215640 -71.820017 77.529177 17.893099 172.125561 73.995103 174.549466 -149.344870 68.919067 -164.588050 18.901874 -3.219654 8.379684 11.276720 6.904469 15.875885 0.059883 0.021544 -0.118700 115.162298 44.503806 -9.604020 117.216801 22.364204 94.744894 -78.201441 3.607716 -102.241050 33.913064 -47.237221 68.614968 -2.723526 -25.124225 23.991933 -0.030353 0.040523 0.000679 0.009293 -0.048216 0.011640 81.236743 62.948539 90.911939 59.916354 -2.990756 161.410506 -52.404088 -43.767734 80.043800 17.981124 -2.277352 -5.520734 -47.090972 22.848710 -144.702418 0.070095 0.023789 -0.007206 -0.078297 0.123178 0.118903 
1.456251 14.927977 -19.038441 87.589978 -44.933098 -31.678432 -125.080571 -28.107684 78.074163 82.425008 48.231915 -14.224779 -144.070741 67.807742 -103.966165 -5.914852 -0.245838 -16.179256 -7.858924 -1.303394 -57.523305 36.805021 -27.459160 -123.728855 -146.446551 -64.383104 119.771141 144.318804 -53.162351 -106.518579 -25.664441 2.019750 -37.923680 8.181767 -0.238920 -45.372727 -73.331009 74.008801 16.368125 171.468597 74.064972 173.971229 -154.180086 66.685045 -169.810069 16.266638 -9.820220 7.631287 10.222990 13.018594 15.186087 -0.180478 0.057180 0.117164 116.788594 44.952128 -10.068412 121.478893 29.338061 100.652107 -71.998788 -7.473184 -99.956568 33.342141 -37.499257 68.392078 -5.106986 -26.518442 31.064996 0.057846 -0.006198 0.022357 0.182553 0.024133 0.008102 94.163595 64.843717 102.762762 64.232798 3.201814 158.456101 -45.905844 -28.495405 78.720290 26.042316 0.394439 -11.055892 -54.327247 29.805602 -121.737989 -0.026551 -0.028305 -0.020877 0.079606 0.037598 0.040713 
1.460642 14.612181 -18.803251 86.764309 -45.229277 -30.983399 -124.465595 -27.611153 77.334953 84.254189 46.560752 -13.622008 -147.305169 68.410987 -103.882175 -5.733372 0.275422 -20.229399 -8.932108 -1.630536 -60.442806 38.450585 -28.306719 -123.135891 -140.753979 -65.375120 117.742477 147.240932 -49.886636 -104.362100 -16.400030 5.951783 -40.686435 8.913702 -0.306808 -46.120763 -75.112593 73.148088 14.762377 170.580039 75.014904 171.869902 -161.094534 67.038854 -176.277184 14.831492 -9.182268 11.645507 8.786649 11.745629 11.469600 0.073773 0.022105 -0.056501 114.060948 44.561915 -11.434077 127.670382 36.794781 105.826716 -63.748314 -12.371453 -104.076455 15.768037 -28.052850 69.025314 -5.240011 -29.026702 38.000805 -0.018444 -0.066633 -0.053964 -0.029047 0.021229 0.001802 104.294026 64.970878 111.350277 68.693594 11.647911 155.919806 -39.430215 -10.427477 78.069192 33.637765 1.865676 -16.185173 -66.556580 36.190536 -117.207389 -0.029260 0.056184 -0.031865 -0.018722 -0.077134 0.075680 
1.456356 14.400826 -18.571995 86.572688 -45.468258 -31.274414 -124.326017 -28.272353 76.907998 84.673766 45.216230 -12.297920 -149.671857 68.207038 -103.608381 -2.415745 2.048969 -22.014316 -9.548424 -1.639906 -60.786739 38.424196 -28.232827 -120.532561 -140.017241 -67.860294 118.907287 144.687093 -46.975364 -98.853428 -9.958956 7.150117 -43.679144 9.827532 -0.476760 -46.762031 -80.724821 71.354778 9.468757 174.867295 74.488215 175.677810 -166.278556 67.314248 179.405295 12.196258 -8.335078 14.001804 10.594408 11.081619 15.081415 0.036612 -0.050785 0.135360 110.009426 45.050310 -12.664184 135.913668 45.746393 112.236116 -56.747677 -13.290506 -109.402892 6.411349 -20.086825 71.708170 -6.023771 -32.374422 38.264458 -0.040755 -0.051603 0.032730 -0.045989 0.106055 -0.045420 114.699836 65.154260 121.049566 72.384486 24.029335 153.519546 -28.597077 0.064314 82.236623 35.953970 2.757214 -22.790772 -78.857952 39.795583 -122.979682 -0.032144 -0.055380 -0.046344 0.017760 -0.031664 -0.070842 
